<svg version="1.1" class="clearos-svg clearfoundation app-vendor-clearfoundation app-free app-category-server app-sub-category-file" viewBox="0 0 400 400" preserveAspectRatio="xMinYMin" xmlns="http://www.w3.org/2000/svg" xmlns:xlink= "http://www.w3.org/1999/xlink">
<path fill="#AA0707" d="M91.666,184.647"/>
<path fill="#AA0707" d="M123.245,247.805"/>
<path fill="#AA0707" d="M91.666,184.647"/>
<path fill="#AA0707" d="M123.245,247.805"/>
<g>
	<path fill="#686868" d="M135.833,41.957c0,5.329-4.318,9.656-9.655,9.656H63.371c-5.329,0-9.656-4.327-9.656-9.656l0,0
		c-0.016-5.338,4.304-9.656,9.656-9.656h62.808C131.492,32.3,135.833,36.619,135.833,41.957L135.833,41.957z"/>
	<path fill="#686868" d="M155.842,144.101c-41.925,0-75.907,33.983-75.907,75.907c0,41.941,33.982,75.908,75.907,75.908
		c41.926,0,75.894-33.982,75.894-75.908C231.733,178.084,197.784,144.101,155.842,144.101z M155.842,277.979
		c-32.033,0-57.97-25.928-57.97-57.971c0-32.034,25.92-57.971,57.97-57.971c32.019,0,57.972,25.953,57.972,57.971
		C213.812,252.051,187.86,277.979,155.842,277.979z"/>
	<path fill="#686868" d="M347.691,66.801H52.324c-27.448,0-49.688,22.24-49.688,49.688v201.522c0,27.447,22.24,49.688,49.688,49.688
		h295.351c27.466,0,49.688-22.238,49.688-49.688V116.489C397.38,89.058,375.157,66.801,347.691,66.801z M155.842,323.527
		c-60.242,0-109.033-48.814-109.033-109.035c0-60.218,48.814-109.033,109.033-109.033c60.22,0,109.019,48.815,109.019,109.033
		C264.86,274.711,216.062,323.527,155.842,323.527z M360.113,151.687c0,9.139-7.358,16.563-16.563,16.563h-53.828
		c-9.172,0-16.563-7.425-16.563-16.563V120.63c0-9.14,7.394-16.563,16.563-16.563h53.828c9.203,0,16.563,7.424,16.563,16.563
		V151.687z"/>
</g>
</svg>
